<svg xmlns="http://www.w3.org/2000/svg" version="1.1" width="490" height="477">
<path d="M0 0 C3.73559061 0.00685613 7.47114092 -0.00372287 11.20672321 -0.01193976 C18.50383359 -0.02521006 25.80085088 -0.02242948 33.09796476 -0.01370184 C39.03376142 -0.00689912 44.96953217 -0.0060197 50.90533161 -0.00927329 C51.75335547 -0.00973299 52.60137933 -0.01019269 53.47510087 -0.01066632 C55.19838064 -0.01162559 56.92166039 -0.01259823 58.64494014 -0.01358409 C74.76640667 -0.02211835 90.88782186 -0.0123348 107.00927997 0.00381701 C120.81232304 0.0172184 134.61529039 0.01488975 148.4183321 0.00106072 C164.48603846 -0.01502992 180.55369993 -0.02129456 196.62141323 -0.01210248 C198.33800093 -0.01114694 200.05458863 -0.01020382 201.77117634 -0.00927329 C202.6155511 -0.00881046 203.45992587 -0.00834764 204.32988775 -0.00787079 C210.25169389 -0.00529133 216.17347132 -0.00962924 222.09527302 -0.01671195 C229.32179783 -0.025166 236.54822502 -0.02276537 243.77473879 -0.00686972 C247.45477095 0.00096086 251.13464092 0.00419487 254.81467152 -0.00581717 C281.40363304 -0.07200967 305.35052166 1.46781047 325.52575397 20.95467401 C339.1699964 34.70155398 345.66815447 52.99513681 345.60567951 72.13660455 C345.61021062 73.17178761 345.61474174 74.20697067 345.61941016 75.27352291 C345.63199844 78.7176606 345.63043738 82.16163901 345.62878132 85.60579705 C345.63477006 88.08536759 345.6415764 90.56493626 345.64913654 93.0445025 C345.66493993 99.06672168 345.67124343 105.08887904 345.6723613 111.11111321 C345.67331462 116.01111388 345.67743901 120.91110173 345.68376255 125.81109834 C345.70135932 139.73177063 345.71060393 153.6524122 345.7091016 167.5730957 C345.70902169 168.32219769 345.70894178 169.07129969 345.70885944 169.84310174 C345.70877768 170.59312822 345.70869592 171.3431547 345.70861168 172.11590926 C345.70779934 184.26226312 345.72692812 196.40849281 345.75513618 208.55481078 C345.78393315 221.05427578 345.79767272 233.55368035 345.79594862 246.05317932 C345.79528705 253.05954341 345.80067679 260.06577734 345.82230473 267.07211137 C345.84252944 273.66564835 345.84177354 280.2589587 345.82727146 286.85252595 C345.82518911 289.26346131 345.82984976 291.67441407 345.84199238 294.08531976 C345.94846962 316.70293605 342.75554523 336.38254213 326.54040241 353.31551385 C310.93129934 368.96206165 293.03944923 376.378391 271.04515648 376.47574353 C267.73789207 376.47323528 264.43083908 376.45884695 261.12364864 376.43677354 C258.40311993 376.4192051 255.68265132 376.40902913 252.96207905 376.40085626 C245.23414159 376.37655103 237.50628613 376.34076903 229.77843952 376.29622674 C225.03367038 376.26939008 220.28894694 376.25238575 215.54411602 376.24135804 C213.74405117 376.23517124 211.94399504 376.22519493 210.14397335 376.21127915 C207.62705041 376.1919791 205.11036811 376.18515586 202.59338093 376.18099236 C201.85814701 376.17223077 201.12291309 376.16346917 200.36539936 376.15444207 C194.34021633 376.16577204 189.43164114 376.73606996 184.62087727 380.54192376 C183.75755787 381.43142724 182.89423847 382.32093072 182.00475788 383.23738885 C181.52076023 383.72868783 181.03676258 384.21998681 180.53809834 384.72617364 C179.49582073 385.78737674 178.45935538 386.85431413 177.42823887 387.92636514 C175.79050602 389.62837611 174.13725134 391.3138627 172.47921467 392.99608636 C168.36462997 397.17725566 164.27764829 401.3850724 160.18987751 405.59243035 C156.73181589 409.14959736 153.26339308 412.69604042 149.78086185 416.22925973 C148.16125981 417.88099474 146.55761674 419.54717105 144.95412922 421.21453118 C139.05630246 427.25969183 133.36215215 432.96129209 124.55309772 433.59139276 C120.09389786 432.58941131 116.91679092 431.36699005 113.51598835 428.26253533 C112.82714558 427.63569848 112.1383028 427.00886163 111.42858601 426.36302972 C108.08982646 423.21510239 104.80447154 420.02087373 101.55700397 416.77889276 C100.85805012 416.0832673 100.15909626 415.38764184 99.43896198 414.67093682 C97.97896193 413.21595708 96.52027444 411.75965914 95.06286335 410.30208611 C92.82151633 408.06295289 90.57225384 405.83197122 88.32262897 403.60115838 C86.90026624 402.18172508 85.47837374 400.76182038 84.05700397 399.34139276 C83.38213947 398.67371377 82.70727497 398.00603478 82.01196003 397.3181231 C81.3971175 396.70020394 80.78227497 396.08228478 80.14880085 395.4456408 C79.60445393 394.9027189 79.060107 394.35979699 78.49926472 393.80042291 C77.33825397 392.39217401 77.33825397 392.39217401 77.33825397 390.39217401 C76.67825397 390.39217401 76.01825397 390.39217401 75.33825397 390.39217401 C75.33825397 389.73217401 75.33825397 389.07217401 75.33825397 388.39217401 C74.78137897 388.18592401 74.22450397 387.97967401 73.65075397 387.76717401 C70.46548243 385.87322876 68.63307745 383.27541376 66.33825397 380.39217401 C64.17911037 377.98389844 63.51468308 377.45098371 60.33825397 376.39217401 C57.85159346 376.3063742 55.39398826 376.27648151 52.90783405 376.29451776 C51.77529949 376.29670815 51.77529949 376.29670815 50.61988544 376.2989428 C48.97806172 376.30274997 47.33624212 376.30886777 45.69443417 376.31700921 C43.08120754 376.32980414 40.46803194 376.33629847 37.85477924 376.34114861 C31.35215363 376.35450784 24.84957535 376.3784857 18.346982 376.40254998 C12.86933555 376.42246477 7.39170851 376.43804006 1.91403484 376.44811273 C-0.63357429 376.45449576 -3.1811027 376.46701208 -5.72868633 376.47982049 C-30.79078857 376.56132438 -53.17913081 374.64561941 -72.00158978 356.16170526 C-75.57085757 352.44568343 -78.7276508 348.62328167 -81.66174603 344.39217401 C-82.10905071 343.79533807 -82.5563554 343.19850213 -83.01721478 342.58358026 C-88.97550282 334.05864505 -91.69697903 323.58186829 -92.78911114 313.35594964 C-92.87192906 312.58646072 -92.95474697 311.8169718 -93.04007453 311.02416503 C-94.04936434 300.65205395 -93.94951636 290.25726892 -93.93640423 279.84676385 C-93.94076172 277.53512177 -93.94594829 275.22348113 -93.9518919 272.91184258 C-93.96517753 266.68680958 -93.9658726 260.46183767 -93.9633286 254.23679328 C-93.96225235 249.02068934 -93.96715855 243.80459743 -93.97193402 238.58849609 C-93.98362182 225.57618806 -93.98282475 212.56391456 -93.97637721 199.55160435 C-93.97120499 188.28913436 -93.98247982 177.02675079 -94.00147543 165.76429789 C-94.02090917 154.15163395 -94.02880998 142.53901449 -94.02535218 130.92633426 C-94.02354619 124.4258967 -94.02610751 117.92553842 -94.04006672 111.42511392 C-94.05270336 105.31327036 -94.05064597 99.20159928 -94.03765583 93.08975816 C-94.03530367 90.8582334 -94.03797539 88.62669626 -94.04627895 86.39518571 C-94.15465677 54.98497777 -94.15465677 54.98497777 -86.91174603 42.01717401 C-86.38568768 41.02705316 -86.38568768 41.02705316 -85.84900188 40.01692986 C-76.43071009 22.64059599 -62.93112988 9.32422926 -43.66174603 3.39217401 C-29.33679379 -0.51831203 -14.72475415 -0.04006077 0 0 Z M-52.83752728 50.56014276 C-57.74639977 58.18098335 -59.25610664 66.09229574 -59.1696806 75.0180285 C-59.17592056 76.02830338 -59.18216052 77.03857826 -59.18858957 78.07946754 C-59.20442572 81.43329602 -59.19195187 84.78638821 -59.17932415 88.14022088 C-59.18474942 90.55746658 -59.19187434 92.97470896 -59.20056438 95.39194512 C-59.21686686 101.25698975 -59.21454096 107.12184617 -59.20291382 112.98688543 C-59.19385213 117.75675922 -59.19266727 122.52657568 -59.19700909 127.29645562 C-59.19762202 127.97730351 -59.19823495 128.65815139 -59.19886646 129.35963103 C-59.20014546 130.74309013 -59.20144231 132.12654921 -59.20275682 133.51000828 C-59.21414219 146.45950999 -59.20108111 159.40889813 -59.17955536 172.35838121 C-59.1616862 183.45124528 -59.16479088 194.54394186 -59.1832304 205.63680291 C-59.20467335 218.54237472 -59.21304374 231.44784719 -59.20078135 244.35343432 C-59.19950725 245.731587 -59.19824977 247.10973969 -59.19700909 248.48789239 C-59.19639198 249.16583493 -59.19577488 249.84377747 -59.19513908 250.54226372 C-59.19169643 255.30218966 -59.19749101 260.06205219 -59.2069273 264.82196832 C-59.21936697 271.2374219 -59.21041394 277.65263448 -59.18735027 284.06806016 C-59.18207657 286.41777739 -59.18355391 288.7675213 -59.19240093 291.11722779 C-59.20339264 294.33394576 -59.18954826 297.54966456 -59.1696806 300.76631951 C-59.17860348 301.68783917 -59.18752637 302.60935883 -59.19671965 303.55880332 C-59.07606255 313.68605821 -55.70815821 323.01838427 -48.66174603 330.39217401 C-39.25383735 338.92452914 -30.73920624 341.54149276 -18.24084759 341.53401971 C-17.29872417 341.53749413 -16.35660076 341.54096856 -15.38592815 341.54454827 C-13.34361896 341.55188881 -11.30130188 341.55724324 -9.25898266 341.56083894 C-6.02156951 341.56802361 -2.78430625 341.58370552 0.4530611 341.60218072 C9.6566331 341.65455432 18.86012209 341.70261053 28.06383991 341.71810174 C33.69780785 341.72820521 39.33139679 341.75758873 44.96521473 341.79942155 C47.10688372 341.81170125 49.2486063 341.81685837 51.39030933 341.81462312 C54.3938742 341.81225976 57.39635898 341.83451527 60.39977741 341.86214471 C61.27593708 341.8555433 62.15209675 341.84894189 63.05480671 341.84214044 C72.23113115 341.98002476 78.87544277 345.35920586 85.40075397 351.64217401 C86.15981037 352.36461297 86.15981037 352.36461297 86.93420124 353.10164666 C88.41560657 354.51880677 89.87943757 355.95181065 91.33825397 357.39217401 C92.11942585 358.15787713 92.90059772 358.92358026 93.70544147 359.71248651 C95.59847042 361.59122844 97.47220073 363.4866971 99.33825397 365.39217401 C100.18387897 366.23779901 101.02950397 367.08342401 101.90075397 367.95467401 C102.70512897 368.75904901 103.50950397 369.56342401 104.33825397 370.39217401 C104.88223835 370.92455682 105.42622272 371.45693963 105.98669147 372.00545526 C109.48784664 375.45309932 112.76327132 378.99446737 115.92419147 382.75545526 C117.94236722 385.09141005 120.12598423 387.24135619 122.33825397 389.39217401 C122.99825397 390.05217401 123.65825397 390.71217401 124.33825397 391.39217401 C127.54992434 391.28142675 128.64738209 390.11817408 131.08825397 387.95467401 C133.5581877 385.71004697 133.5581877 385.71004697 133.33825397 383.39217401 C133.99825397 383.39217401 134.65825397 383.39217401 135.33825397 383.39217401 C135.33825397 382.73217401 135.33825397 382.07217401 135.33825397 381.39217401 C136.32825397 381.06217401 137.31825397 380.73217401 138.33825397 380.39217401 C138.33825397 379.73217401 138.33825397 379.07217401 138.33825397 378.39217401 C138.89512897 378.16529901 139.45200397 377.93842401 140.02575397 377.70467401 C144.08988244 375.3980065 146.87212918 371.95152376 149.83825397 368.39217401 C152.21082379 365.54509022 154.71152746 363.00351706 157.33825397 360.39217401 C158.17743366 359.50658807 159.01661335 358.62100213 159.88122272 357.70858026 C167.01506438 350.2796905 174.4593831 342.81091503 185.30592251 342.29937577 C187.74434181 342.25737427 190.18096409 342.24884653 192.61974812 342.2503283 C193.54729908 342.24685388 194.47485004 342.24337945 195.43050861 342.23979974 C197.44170822 342.23245887 199.45291584 342.22710461 201.46412563 342.22350907 C204.6561567 342.21631899 207.84803623 342.20063166 211.04002094 342.18216729 C220.1149149 342.12982948 229.18972612 342.08177354 238.26476765 342.06624627 C243.82094447 342.05611795 249.37673956 342.02666908 254.93276501 341.98492646 C257.04125222 341.97267876 259.1497935 341.96748371 261.25831509 341.96972489 C275.2457278 341.9809303 288.07244053 341.96149774 299.30309772 332.44295526 C314.19287202 317.43886407 312.4947715 299.22922977 312.47106647 279.53670526 C312.47208291 277.60815689 312.47342283 275.67960866 312.47506428 273.75106072 C312.47774492 268.62834933 312.4733255 263.50566862 312.46682453 258.38296151 C312.46323001 255.18334385 312.46163057 251.9837307 312.46056843 248.78411126 C312.45090055 225.36909318 312.42767007 201.96264165 311.76302814 178.55538201 C311.37315242 164.64986714 311.3265811 150.76151311 311.39722538 136.85188508 C311.41248801 133.77972304 311.42534043 130.70755952 311.43752766 127.63538384 C311.47564209 118.35479414 311.52114386 109.07472823 311.61270142 99.79449296 C311.64693623 95.91632662 311.66455854 92.03820001 311.67832088 88.15991235 C311.68846046 86.34038342 311.70574797 84.520878 311.73074627 82.70149255 C311.89928882 70.15641249 311.12902142 59.77986393 303.33825397 49.39217401 C302.67825397 48.40217401 302.01825397 47.41217401 301.33825397 46.39217401 C300.67825397 46.39217401 300.01825397 46.39217401 299.33825397 46.39217401 C299.33825397 45.73217401 299.33825397 45.07217401 299.33825397 44.39217401 C296.87420162 42.62769543 296.87420162 42.62769543 293.77575397 40.89217401 C292.74321491 40.28373651 291.71067585 39.67529901 290.64684772 39.04842401 C283.00299667 35.22198617 276.30604101 35.10425839 267.87089252 35.13147759 C266.61423308 35.12765205 265.35757364 35.1238265 264.06283361 35.11988503 C260.58623887 35.10961857 257.10974742 35.11178339 253.63314426 35.11606562 C249.87911012 35.11853534 246.12510069 35.10951558 242.37107563 35.10202813 C235.02062298 35.08928549 227.67020686 35.08748693 220.31974503 35.08982839 C214.34363935 35.09161236 208.36754475 35.08986022 202.39144039 35.08560395 C201.54046479 35.08500876 200.68948918 35.08441357 199.81272644 35.08380035 C198.08387849 35.08258858 196.35503054 35.08137444 194.62618259 35.08015797 C178.41624891 35.06928391 162.20633603 35.07144417 145.99640117 35.07754282 C131.17583043 35.08271068 116.35532544 35.07145975 101.53476771 35.0524446 C86.3087045 35.03305931 71.08267239 35.02481149 55.85659677 35.02856785 C47.31168982 35.030479 38.76683882 35.02800086 30.22194195 35.01385331 C22.94672482 35.00192967 15.67159807 35.00054557 8.39637967 35.01264348 C4.68677029 35.01852555 0.97732615 35.01965036 -2.73227215 35.00764108 C-6.75945644 34.99475555 -10.78624878 35.00526278 -14.81343365 35.0179522 C-15.97794247 35.01057792 -17.14245129 35.00320363 -18.34224826 34.99560589 C-33.03193643 35.09286254 -42.84897064 39.94337501 -52.83752728 50.56014276 Z " fill="#010101" transform="translate(118.66174602508545,28.607825994491577)"/>
<path d="M0 0 C4.89320022 2.31314919 7.4416903 5.26238944 10 10 C11.47294324 15.2191273 10.36739483 18.94057937 8.47265625 23.84375 C8.19784927 24.58604858 7.9230423 25.32834717 7.63990784 26.09313965 C6.77771389 28.40266022 5.89312559 30.70228027 5 33 C4.73177429 33.69303223 4.46354858 34.38606445 4.18719482 35.10009766 C2.59365436 39.19639995 0.96038365 43.27583665 -0.69085693 47.34918213 C-2.2328302 51.15406945 -3.76166252 54.96424777 -5.29296875 58.7734375 C-5.60518372 59.54912079 -5.91739868 60.32480408 -6.23907471 61.12399292 C-9.3181236 68.77774607 -12.35397647 76.44818722 -15.375 84.125 C-15.63521942 84.78574524 -15.89543884 85.44649048 -16.1635437 86.1272583 C-19.45573874 94.48908247 -22.7266641 102.85905838 -25.984375 111.234375 C-38.38483243 143.11184841 -38.38483243 143.11184841 -44.1875 157.4375 C-44.60854004 158.48341309 -45.02958008 159.52932617 -45.46337891 160.60693359 C-53.15943419 179.46492069 -53.15943419 179.46492069 -59 183 C-63.98079383 184.66026461 -68.30273629 184.59903425 -73.1875 182.875 C-77.07196678 180.28535548 -79.88657021 177.22685959 -82 173 C-83.04477588 163.97429724 -79.54039651 156.51013954 -76.25 148.3125 C-75.65223076 146.79118158 -75.05573403 145.2693626 -74.46044922 143.74707031 C-72.94517635 139.88409279 -71.41162086 136.02871162 -69.87023926 132.17608643 C-69.06030741 130.15080235 -68.2534843 128.12432043 -67.44824219 126.09716797 C-65.28269753 120.64844846 -63.10791988 115.20358574 -60.91833496 109.76448059 C-57.39372894 101.00822468 -53.9241383 92.23075041 -50.46459961 83.4486084 C-44.14051722 67.39510692 -37.78654763 51.35432966 -31.34472656 35.34765625 C-30.02296869 32.05717987 -28.71039136 28.76314521 -27.3984375 25.46875 C-26.59942765 23.47897814 -25.79997617 21.48938355 -25 19.5 C-24.65018066 18.61570313 -24.30036133 17.73140625 -23.93994141 16.8203125 C-19.2327326 5.19100754 -13.61314013 -1.98820825 0 0 Z " fill="#010101" transform="translate(293,131)"/>
<path d="M0 0 C4.73045214 3.7270229 6.68873793 8.08998762 7.546875 13.90625 C7.15659816 22.87765622 -1.66572863 30.17821924 -7.625 36.06640625 C-8.43302063 36.87492538 -9.24104126 37.68344452 -10.07354736 38.51646423 C-11.76759983 40.20819202 -13.46530734 41.89626702 -15.16650391 43.58081055 C-17.78082692 46.17131341 -20.38133718 48.77512357 -22.98046875 51.38085938 C-24.63201829 53.02683895 -26.28433455 54.67204965 -27.9375 56.31640625 C-28.71768494 57.09750259 -29.49786987 57.87859894 -30.30169678 58.68336487 C-31.02294739 59.39508347 -31.744198 60.10680206 -32.48730469 60.84008789 C-33.12206726 61.47024307 -33.75682983 62.10039825 -34.41082764 62.74964905 C-36.015625 64.09375 -36.015625 64.09375 -38.015625 64.09375 C-39.4762535 66.74113916 -40.015625 67.98823334 -40.015625 71.09375 C-40.015625 71.75375 -40.015625 72.41375 -40.015625 73.09375 C-39.025625 73.42375 -38.035625 73.75375 -37.015625 74.09375 C-37.015625 74.75375 -37.015625 75.41375 -37.015625 76.09375 C-36.355625 76.09375 -35.695625 76.09375 -35.015625 76.09375 C-35.015625 76.75375 -35.015625 77.41375 -35.015625 78.09375 C-34.025625 78.42375 -33.035625 78.75375 -32.015625 79.09375 C-32.015625 79.75375 -32.015625 80.41375 -32.015625 81.09375 C-31.42368347 81.36102905 -30.83174194 81.62830811 -30.22186279 81.90368652 C-27.9819606 83.11190887 -26.51133952 84.34451931 -24.71582031 86.13476562 C-24.09547913 86.74880249 -23.47513794 87.36283936 -22.83599854 87.9954834 C-22.17855652 88.65697388 -21.5211145 89.31846436 -20.84375 90 C-20.1613324 90.68050415 -19.47891479 91.3610083 -18.77581787 92.06213379 C-17.33783073 93.49876197 -15.90235808 94.93791085 -14.46923828 96.37939453 C-12.26685472 98.59251429 -10.05397567 100.79473472 -7.83984375 102.99609375 C-6.44467046 104.39258803 -5.05011738 105.78970227 -3.65625 107.1875 C-2.99071106 107.84899048 -2.32517212 108.51048096 -1.63946533 109.1920166 C-1.03173279 109.80605347 -0.42400024 110.42009033 0.20214844 111.05273438 C1.01011871 111.86309143 1.01011871 111.86309143 1.83441162 112.68981934 C2.984375 114.09375 2.984375 114.09375 2.984375 116.09375 C3.644375 116.09375 4.304375 116.09375 4.984375 116.09375 C7.60241697 121.6319157 8.46068441 125.10107763 6.78125 131.05078125 C5.26540906 134.93698129 2.97980651 137.24470548 -0.140625 139.90625 C-5.80126459 142.24434026 -11.08800012 141.8778686 -16.703125 139.59375 C-20.18103541 137.29963539 -22.68519715 134.23495478 -25.32421875 131.046875 C-27.65090406 128.36017141 -30.24714099 126.32057409 -33.015625 124.09375 C-35.68178343 121.55764808 -38.07598743 119.01909121 -40.390625 116.15625 C-42.75756606 113.25339775 -45.43459492 110.93289517 -48.3046875 108.5390625 C-54.65545551 103.17425847 -54.65545551 103.17425847 -56.015625 99.09375 C-56.675625 99.09375 -57.335625 99.09375 -58.015625 99.09375 C-59.36949436 97.44372172 -60.70240642 95.7763113 -62.015625 94.09375 C-62.675625 93.76375 -63.335625 93.43375 -64.015625 93.09375 C-64.015625 92.43375 -64.015625 91.77375 -64.015625 91.09375 C-64.675625 91.09375 -65.335625 91.09375 -66.015625 91.09375 C-67.78356559 89.47734717 -69.39202108 87.84842611 -71.015625 86.09375 C-71.9128125 85.15208984 -71.9128125 85.15208984 -72.828125 84.19140625 C-77.55975703 79.05561398 -80.015625 75.48063263 -80.015625 68.28125 C-78.54775468 59.37851307 -70.89187886 52.54825272 -64.73046875 46.515625 C-63.95175919 45.74116028 -63.17304962 44.96669556 -62.3707428 44.16876221 C-59.9052263 41.71988404 -57.42945624 39.28168664 -54.953125 36.84375 C-53.287715 35.19341085 -51.62299505 33.54237506 -49.95898438 31.890625 C-46.24957134 28.210859 -42.53426922 24.53720025 -38.81027222 20.87219238 C-37.2388168 19.31492648 -35.6891399 17.73932728 -34.14282227 16.15722656 C-32.015625 14.09375 -32.015625 14.09375 -29.828125 13.03125 C-27.48701569 11.82033139 -26.97491374 10.49197186 -26.015625 8.09375 C-25.355625 8.09375 -24.695625 8.09375 -24.015625 8.09375 C-23.685625 7.10375 -23.355625 6.11375 -23.015625 5.09375 C-16.72485617 -0.64999545 -8.38326312 -3.76921908 0 0 Z " fill="#010101" transform="translate(193.015625,154.90625)"/>
<path d="M0 0 C6.56185354 3.45031265 11.56523229 9.20049961 16.73339844 14.41113281 C17.90007277 15.5751079 19.06733994 16.73848906 20.23516846 17.90130615 C22.67228339 20.33254646 25.10207507 22.77081509 27.52685547 25.21435547 C30.62223738 28.33252522 33.73523454 31.43238839 36.85396957 34.52717972 C39.26513956 36.92383676 41.66662919 39.33001256 44.06537628 41.7390976 C45.20901933 42.88539274 46.35559627 44.02876906 47.50524139 45.16904449 C60.62567558 58.20591631 60.62567558 58.20591631 62.12402344 67.64550781 C61.52265414 77.39217505 51.35885929 85.27661627 44.92089844 91.64941406 C43.9024221 92.66737062 42.88446652 93.68584844 41.86700439 94.70481873 C39.75033112 96.82140297 37.62865051 98.93278664 35.50292969 101.0402832 C32.7750156 103.74532278 30.05851948 106.46150348 27.34537888 109.18135166 C25.25260044 111.27746188 23.15488602 113.36857251 21.0555191 115.4580822 C20.05102567 116.45872379 19.04788041 117.46072061 18.04610443 118.46408272 C16.6535009 119.85705533 15.25368691 121.24280829 13.85351562 122.62817383 C12.66154572 123.81323265 12.66154572 123.81323265 11.44549561 125.02223206 C9.49902344 126.70800781 9.49902344 126.70800781 7.49902344 126.70800781 C7.29277344 127.26488281 7.08652344 127.82175781 6.87402344 128.39550781 C4.44640812 132.47831539 1.56803606 134.98197867 -2.87207031 136.54003906 C-8.23556138 137.80539845 -12.39729206 138.16170228 -17.50097656 135.70800781 C-21.9439119 131.60683673 -24.20234638 128.18237222 -24.93847656 122.08300781 C-24.83380265 115.74442081 -20.96011594 111.09759577 -16.56738281 106.82910156 C-15.23285347 105.66626606 -13.88237159 104.52148615 -12.51660156 103.39550781 C-9.3048985 100.70664013 -6.42768242 97.69943198 -3.50097656 94.70800781 C5.1656901 86.04134115 13.83235677 77.37467448 22.49902344 68.70800781 C21.05002117 65.37204997 19.23646105 63.21590652 16.64770508 60.67724609 C15.85670914 59.89608429 15.0657132 59.11492249 14.25074768 58.31008911 C13.39553024 57.47460541 12.54031281 56.6391217 11.65917969 55.77832031 C9.85632567 53.99588923 8.05359512 52.21333327 6.25097656 50.43066406 C3.40494025 47.62811807 0.55660595 44.8279666 -2.29467773 42.03076172 C-5.04568434 39.32807685 -7.78739033 36.61621832 -10.52832031 33.90332031 C-11.38151352 33.07188507 -12.23470673 32.24044983 -13.11375427 31.38381958 C-18.2081672 26.33227113 -23.14142094 21.25867588 -23.50097656 13.70800781 C-22.03489432 7.29389801 -19.04085153 3.27136555 -13.68847656 -0.60449219 C-8.71772317 -2.16672897 -4.77712177 -1.76293782 0 0 Z " fill="#010101" transform="translate(329.5009765625,156.2919921875)"/>
<path d="" fill="#000000" transform="translate(0,0)"/>
<path d="" fill="#000000" transform="translate(0,0)"/>
<path d="M0 0 C3 1 3 1 3 1 Z " fill="#000000" transform="translate(208,65)"/>
<path d="M0 0 C3 1 3 1 3 1 Z " fill="#000000" transform="translate(377,27)"/>
<path d="" fill="#000000" transform="translate(0,0)"/>
<path d="" fill="#000000" transform="translate(0,0)"/>
<path d="" fill="#000000" transform="translate(0,0)"/>
<path d="" fill="#000000" transform="translate(0,0)"/>
<path d="" fill="#000000" transform="translate(0,0)"/>
<path d="" fill="#000000" transform="translate(0,0)"/>
<path d="M0 0 C2 1 2 1 2 1 Z " fill="#000000" transform="translate(152,224)"/>
<path d="" fill="#000000" transform="translate(0,0)"/>
<path d="" fill="#000000" transform="translate(0,0)"/>
<path d="" fill="#000000" transform="translate(0,0)"/>
<path d="" fill="#000000" transform="translate(0,0)"/>
<path d="" fill="#000000" transform="translate(0,0)"/>
<path d="" fill="#000000" transform="translate(0,0)"/>
<path d="M0 0 C2 1 2 1 2 1 Z " fill="#000000" transform="translate(321,65)"/>
<path d="M0 0 C2 1 2 1 2 1 Z " fill="#000000" transform="translate(193,65)"/>
<path d="M0 0 C2 1 2 1 2 1 Z " fill="#000000" transform="translate(105,65)"/>
<path d="M0 0 C2 1 2 1 2 1 Z " fill="#000000" transform="translate(101,65)"/>
<path d="" fill="#000000" transform="translate(0,0)"/>
<path d="" fill="#000000" transform="translate(0,0)"/>
<path d="" fill="#000000" transform="translate(0,0)"/>
<path d="" fill="#000000" transform="translate(0,0)"/>
<path d="" fill="#000000" transform="translate(0,0)"/>
<path d="" fill="#000000" transform="translate(0,0)"/>
<path d="" fill="#000000" transform="translate(0,0)"/>
<path d="" fill="#000000" transform="translate(0,0)"/>
<path d="" fill="#000000" transform="translate(0,0)"/>
<path d="" fill="#000000" transform="translate(0,0)"/>
<path d="" fill="#000000" transform="translate(0,0)"/>
<path d="" fill="#000000" transform="translate(0,0)"/>
<path d="" fill="#000000" transform="translate(0,0)"/>
<path d="" fill="#000000" transform="translate(0,0)"/>
<path d="" fill="#000000" transform="translate(0,0)"/>
<path d="" fill="#000000" transform="translate(0,0)"/>
<path d="" fill="#000000" transform="translate(0,0)"/>
<path d="" fill="#000000" transform="translate(0,0)"/>
<path d="" fill="#000000" transform="translate(0,0)"/>
<path d="" fill="#000000" transform="translate(0,0)"/>
<path d="" fill="#000000" transform="translate(0,0)"/>
<path d="" fill="#000000" transform="translate(0,0)"/>
<path d="" fill="#000000" transform="translate(0,0)"/>
<path d="" fill="#000000" transform="translate(0,0)"/>
<path d="" fill="#000000" transform="translate(0,0)"/>
<path d="" fill="#000000" transform="translate(0,0)"/>
<path d="" fill="#000000" transform="translate(0,0)"/>
<path d="" fill="#000000" transform="translate(0,0)"/>
<path d="" fill="#000000" transform="translate(0,0)"/>
<path d="" fill="#000000" transform="translate(0,0)"/>
<path d="" fill="#000000" transform="translate(0,0)"/>
<path d="" fill="#000000" transform="translate(0,0)"/>
<path d="" fill="#000000" transform="translate(0,0)"/>
<path d="" fill="#000000" transform="translate(0,0)"/>
<path d="" fill="#000000" transform="translate(0,0)"/>
<path d="" fill="#000000" transform="translate(0,0)"/>
<path d="" fill="#000000" transform="translate(0,0)"/>
<path d="" fill="#000000" transform="translate(0,0)"/>
<path d="" fill="#000000" transform="translate(0,0)"/>
<path d="" fill="#000000" transform="translate(0,0)"/>
<path d="" fill="#000000" transform="translate(0,0)"/>
<path d="" fill="#000000" transform="translate(0,0)"/>
<path d="" fill="#000000" transform="translate(0,0)"/>
<path d="" fill="#000000" transform="translate(0,0)"/>
<path d="" fill="#000000" transform="translate(0,0)"/>
<path d="" fill="#000000" transform="translate(0,0)"/>
<path d="" fill="#000000" transform="translate(0,0)"/>
<path d="" fill="#000000" transform="translate(0,0)"/>
<path d="" fill="#000000" transform="translate(0,0)"/>
<path d="" fill="#000000" transform="translate(0,0)"/>
<path d="" fill="#000000" transform="translate(0,0)"/>
<path d="" fill="#000000" transform="translate(0,0)"/>
<path d="" fill="#000000" transform="translate(0,0)"/>
<path d="" fill="#000000" transform="translate(0,0)"/>
<path d="" fill="#000000" transform="translate(0,0)"/>
<path d="" fill="#000000" transform="translate(0,0)"/>
<path d="" fill="#000000" transform="translate(0,0)"/>
<path d="" fill="#000000" transform="translate(0,0)"/>
<path d="" fill="#000000" transform="translate(0,0)"/>
<path d="" fill="#000000" transform="translate(0,0)"/>
<path d="" fill="#000000" transform="translate(0,0)"/>
<path d="" fill="#000000" transform="translate(0,0)"/>
<path d="" fill="#000000" transform="translate(0,0)"/>
<path d="" fill="#000000" transform="translate(0,0)"/>
<path d="" fill="#000000" transform="translate(0,0)"/>
<path d="" fill="#000000" transform="translate(0,0)"/>
<path d="" fill="#000000" transform="translate(0,0)"/>
<path d="" fill="#000000" transform="translate(0,0)"/>
<path d="" fill="#000000" transform="translate(0,0)"/>
<path d="" fill="#000000" transform="translate(0,0)"/>
<path d="" fill="#000000" transform="translate(0,0)"/>
<path d="" fill="#000000" transform="translate(0,0)"/>
<path d="" fill="#000000" transform="translate(0,0)"/>
<path d="" fill="#000000" transform="translate(0,0)"/>
<path d="" fill="#000000" transform="translate(0,0)"/>
<path d="" fill="#000000" transform="translate(0,0)"/>
<path d="" fill="#000000" transform="translate(0,0)"/>
<path d="" fill="#000000" transform="translate(0,0)"/>
<path d="" fill="#000000" transform="translate(0,0)"/>
<path d="" fill="#000000" transform="translate(0,0)"/>
<path d="" fill="#000000" transform="translate(0,0)"/>
<path d="" fill="#000000" transform="translate(0,0)"/>
<path d="" fill="#000000" transform="translate(0,0)"/>
<path d="" fill="#000000" transform="translate(0,0)"/>
<path d="" fill="#000000" transform="translate(0,0)"/>
<path d="" fill="#000000" transform="translate(0,0)"/>
<path d="" fill="#000000" transform="translate(0,0)"/>
<path d="" fill="#000000" transform="translate(0,0)"/>
<path d="" fill="#000000" transform="translate(0,0)"/>
<path d="" fill="#000000" transform="translate(0,0)"/>
<path d="" fill="#000000" transform="translate(0,0)"/>
<path d="" fill="#000000" transform="translate(0,0)"/>
<path d="" fill="#000000" transform="translate(0,0)"/>
<path d="" fill="#000000" transform="translate(0,0)"/>
<path d="" fill="#000000" transform="translate(0,0)"/>
<path d="" fill="#000000" transform="translate(0,0)"/>
<path d="" fill="#000000" transform="translate(0,0)"/>
<path d="" fill="#000000" transform="translate(0,0)"/>
<path d="" fill="#000000" transform="translate(0,0)"/>
<path d="" fill="#000000" transform="translate(0,0)"/>
<path d="" fill="#000000" transform="translate(0,0)"/>
<path d="" fill="#000000" transform="translate(0,0)"/>
<path d="" fill="#000000" transform="translate(0,0)"/>
<path d="" fill="#000000" transform="translate(0,0)"/>
<path d="" fill="#000000" transform="translate(0,0)"/>
<path d="" fill="#000000" transform="translate(0,0)"/>
<path d="" fill="#000000" transform="translate(0,0)"/>
<path d="" fill="#000000" transform="translate(0,0)"/>
<path d="" fill="#000000" transform="translate(0,0)"/>
</svg>